<svg width="299" height="101" viewBox="0 0 299 101" fill="none" xmlns="http://www.w3.org/2000/svg">
<path d="M103.36 5.8H108.4L114.664 25.168H114.736L121 5.8H126.04L117.076 31H112.324L103.36 5.8ZM129.307 26.86V9.94L133.447 5.8H145.759L149.827 9.868V13.72H144.931V11.668L143.239 9.976H136.039L134.203 11.812V24.988L136.039 26.824H143.239L144.931 25.132V23.08H149.827V26.932L145.759 31H133.447L129.307 26.86ZM160.245 9.94H152.721V5.8H172.665V9.94H165.141V31H160.245V9.94ZM104.8 59.112V55.512H109.624V57.636L110.812 58.824H118.264L119.488 57.6V53.424L118.3 52.236H108.76L104.872 48.348V41.688L108.76 37.8H120.136L124.024 41.688V45.324H119.2V43.164L118.012 41.976H110.884L109.696 43.164V46.872L110.884 48.06H120.424L124.312 51.948V59.04L120.352 63H108.688L104.8 59.112ZM129.342 58.86V41.94L133.482 37.8H145.794L149.862 41.868V45.72H144.966V43.668L143.274 41.976H136.074L134.238 43.812V56.988L136.074 58.824H143.274L144.966 57.132V55.08H149.862V58.932L145.794 63H133.482L129.342 58.86ZM154.732 37.8H159.628V48.348H170.284V37.8H175.18V63H170.284V52.524H159.628V63H154.732V37.8ZM181.308 37.8H199.524V41.94H186.204V48.312H198.48V52.38H186.204V58.86H199.524V63H181.308V37.8ZM204.58 37.8H220.708L225.028 42.12V58.68L220.708 63H204.58V37.8ZM218.296 58.824L220.132 56.988V43.812L218.296 41.976H209.476V58.824H218.296ZM230.806 58.68V37.8H235.702V56.988L237.538 58.824H244.594L246.43 56.988V37.8H251.326V58.68L247.006 63H235.126L230.806 58.68ZM257.453 37.8H262.349V58.86H274.949V63H257.453V37.8ZM279.072 37.8H297.288V41.94H283.968V48.312H296.244V52.38H283.968V58.86H297.288V63H279.072V37.8ZM103.9 69.8H108.832L111.892 87.584H112.036L117.04 69.8H120.712L125.608 87.584H125.752L128.812 69.8H133.744L128.524 95H123.952L118.948 77.288H118.804L113.692 95H109.12L103.9 69.8ZM138.601 69.8H143.497V95H138.601V69.8ZM149.81 69.8H165.938L170.258 74.12V90.68L165.938 95H149.81V69.8ZM163.526 90.824L165.362 88.988V75.812L163.526 73.976H154.706V90.824H163.526ZM175.675 90.86V73.94L179.815 69.8H192.343L196.411 73.868V77.72H191.515V75.668L189.823 73.976H182.407L180.571 75.812V88.988L182.407 90.824H189.895L191.659 89.06V85.136H186.259V80.96H196.411V90.86L192.271 95H179.815L175.675 90.86ZM201.803 69.8H220.019V73.94H206.699V80.312H218.975V84.38H206.699V90.86H220.019V95H201.803V69.8ZM230.799 73.94H223.275V69.8H243.219V73.94H235.695V95H230.799V73.94ZM246.085 91.112V87.512H250.909V89.636L252.097 90.824H259.549L260.773 89.6V85.424L259.585 84.236H250.045L246.157 80.348V73.688L250.045 69.8H261.421L265.309 73.688V77.324H260.485V75.164L259.297 73.976H252.169L250.981 75.164V78.872L252.169 80.06H261.709L265.597 83.948V91.04L261.637 95H249.973L246.085 91.112Z" fill="white"/>
<path d="M24.2817 18.6159C24.1085 18.3977 24.0148 18.1265 24.016 17.8475V0.282624C24.0171 0.223868 24.0361 0.166863 24.0704 0.119251C24.1047 0.071639 24.1527 0.0356972 24.2079 0.0162448C24.2631 -0.00320754 24.3229 -0.00524054 24.3793 0.0104184C24.4357 0.0260774 24.486 0.0586798 24.5234 0.103854L53.6192 36.6264C53.6524 36.6691 53.673 36.7204 53.6787 36.7744C53.6844 36.8283 53.675 36.8828 53.6515 36.9316C53.628 36.9805 53.5914 37.0218 53.5458 37.0508C53.5002 37.0798 53.4473 37.0955 53.3933 37.096H39.5881C39.4041 37.0961 39.2225 37.0543 39.0568 36.9739C38.8912 36.8935 38.7458 36.7765 38.6316 36.6317L24.2817 18.6159ZM49.5913 24.542H63.3939C63.5777 24.5426 63.7592 24.5014 63.9249 24.4214C64.0905 24.3415 64.236 24.2249 64.3504 24.0804L68.7104 18.6079C68.8835 18.3896 68.9772 18.1185 68.976 17.8395V0.282624C68.9749 0.223868 68.9559 0.166863 68.9216 0.119251C68.8873 0.071639 68.8394 0.0356972 68.7841 0.0162448C68.7289 -0.00320754 68.6691 -0.00524054 68.6127 0.0104184C68.5563 0.0260774 68.506 0.0586798 68.4686 0.103854L49.3655 24.0831C49.3343 24.1257 49.3153 24.176 49.3107 24.2286C49.3061 24.2813 49.316 24.3342 49.3393 24.3816C49.3626 24.4289 49.3985 24.469 49.4429 24.4973C49.4874 24.5256 49.5387 24.5411 49.5913 24.542ZM31.2268 55.2265V45.7863C31.2284 45.5072 31.1347 45.236 30.9611 45.0179L15.0516 25.0063C14.9354 24.8603 14.7878 24.7426 14.6198 24.6622C14.4519 24.5818 14.2679 24.5407 14.0818 24.542H0.287199C0.232972 24.542 0.179841 24.5574 0.133964 24.5864C0.0880863 24.6154 0.0513399 24.6569 0.0279828 24.7061C0.00462562 24.7552 -0.00438613 24.81 0.00199178 24.8641C0.00836968 24.9182 0.0298761 24.9693 0.064019 25.0116L19.9908 50.0155C20.0977 50.1505 20.1559 50.3179 20.1559 50.4904C20.1559 50.6629 20.0977 50.8303 19.9908 50.9653L0.064019 75.9718C0.0306681 76.0142 0.00983167 76.0651 0.00388422 76.1187C-0.00206323 76.1724 0.0071175 76.2266 0.0303802 76.2753C0.0536429 76.324 0.090052 76.3651 0.135458 76.394C0.180865 76.4229 0.233442 76.4384 0.287199 76.4388H14.0818C14.2658 76.4384 14.4474 76.3968 14.6134 76.3169C14.7793 76.2371 14.9254 76.121 15.041 75.9772L30.9505 55.9656C31.1217 55.7568 31.2189 55.4968 31.2268 55.2265ZM73.0092 50.9813C72.9023 50.8463 72.8441 50.6789 72.8441 50.5064C72.8441 50.3339 72.9023 50.1665 73.0092 50.0315L92.936 25.0276C92.9701 24.9853 92.9916 24.9342 92.998 24.8801C93.0044 24.826 92.9954 24.7712 92.972 24.7221C92.9487 24.6729 92.9119 24.6314 92.866 24.6024C92.8202 24.5734 92.767 24.558 92.7128 24.558H78.9102C78.7259 24.5583 78.544 24.6002 78.378 24.6806C78.212 24.7609 78.0661 24.8777 77.9511 25.0223L62.0415 45.0179C61.868 45.236 61.7742 45.5072 61.7758 45.7863V55.2185C61.7738 55.4977 61.8676 55.7691 62.0415 55.9869L77.9511 75.9985C78.0666 76.1423 78.2127 76.2584 78.3786 76.3383C78.5446 76.4181 78.7262 76.4598 78.9102 76.4601H92.7128C92.7666 76.4598 92.8191 76.4443 92.8645 76.4154C92.9099 76.3865 92.9464 76.3453 92.9696 76.2967C92.9929 76.248 93.0021 76.1937 92.9961 76.1401C92.9902 76.0864 92.9693 76.0355 92.936 75.9932L73.0092 50.9813ZM68.7104 82.3809L54.3631 64.3651C54.2487 64.2206 54.1033 64.104 53.9376 64.0241C53.7719 63.9441 53.5904 63.9029 53.4066 63.9035H39.6439C39.4456 63.9036 39.2499 63.9481 39.0711 64.034C38.8923 64.1199 38.7348 64.2449 38.6103 64.3998L24.2817 82.3809C24.1081 82.6 24.0144 82.8721 24.016 83.152V100.714C24.0165 100.774 24.0352 100.831 24.0696 100.88C24.1041 100.928 24.1525 100.964 24.2084 100.984C24.2642 101.003 24.3247 101.005 24.3816 100.989C24.4385 100.973 24.4889 100.939 24.5261 100.893L46.0125 73.904C46.07 73.8317 46.1429 73.7733 46.2259 73.7332C46.309 73.6931 46.3999 73.6722 46.492 73.6722C46.5842 73.6722 46.6751 73.6931 46.7581 73.7332C46.8411 73.7733 46.9141 73.8317 46.9716 73.904L68.4686 100.893C68.5058 100.939 68.5562 100.973 68.6131 100.989C68.67 101.005 68.7305 101.003 68.7863 100.984C68.8421 100.964 68.8906 100.928 68.925 100.88C68.9595 100.831 68.9782 100.774 68.9787 100.714V83.152C68.9795 82.8717 68.8848 82.5996 68.7104 82.3809Z" fill="white"/>
</svg>
