<svg xmlns="http://www.w3.org/2000/svg" viewBox="0 0 350 378.56"><defs><style>.a{fill:red;}</style></defs><path class="a" d="M91.39,69.79a4.59,4.59,0,0,1-1-2.88V1.08A1.08,1.08,0,0,1,92.3.41L201.81,137.29a1.09,1.09,0,0,1-.85,1.76H149a4.59,4.59,0,0,1-3.6-1.74ZM186.65,92H238.6a4.58,4.58,0,0,0,3.6-1.73l16.41-20.51a4.59,4.59,0,0,0,1-2.88V1.08A1.08,1.08,0,0,0,257.7.41L185.8,90.28A1.08,1.08,0,0,0,186.65,92ZM117.53,207V171.62a4.57,4.57,0,0,0-1-2.88l-59.88-75A4.63,4.63,0,0,0,53,92H1.08a1.08,1.08,0,0,0-.84,1.76l75,93.71a2.86,2.86,0,0,1,0,3.56l-75,93.72a1.08,1.08,0,0,0,.84,1.75H53a4.65,4.65,0,0,0,3.61-1.73l59.88-75A4.57,4.57,0,0,0,117.53,207Zm157.26-15.91a2.86,2.86,0,0,1,0-3.56l75-93.71a1.08,1.08,0,0,0-.84-1.76H297a4.63,4.63,0,0,0-3.61,1.74l-59.88,74.94a4.57,4.57,0,0,0-1,2.88v35.35a4.55,4.55,0,0,0,1,2.88l59.88,75a4.65,4.65,0,0,0,3.61,1.73h51.95a1.08,1.08,0,0,0,.84-1.75ZM258.61,308.77l-54-67.52a4.58,4.58,0,0,0-3.6-1.73h-51.8a5,5,0,0,0-3.89,1.86L91.39,308.77a4.6,4.6,0,0,0-1,2.89v65.82a1.08,1.08,0,0,0,1.92.67L173.18,277a2.31,2.31,0,0,1,3.61,0L257.7,378.15a1.08,1.08,0,0,0,1.92-.67V311.66A4.6,4.6,0,0,0,258.61,308.77Z"/></svg>